<svg width="600" height="400" viewBox="0 0 600 400" fill="none" xmlns="http://www.w3.org/2000/svg">
  <!-- Background -->
  <rect width="600" height="400" fill="#F8FAFC"/>
  
  <!-- Decorative shapes -->
  <circle cx="100" cy="100" r="50" fill="#FF6B35" opacity="0.1"/>
  <circle cx="500" cy="80" r="30" fill="#F7931E" opacity="0.1"/>
  <circle cx="80" cy="320" r="40" fill="#FF6B35" opacity="0.1"/>
  <circle cx="520" cy="350" r="25" fill="#F7931E" opacity="0.1"/>
  
  <!-- Main illustration -->
  <rect x="150" y="120" width="300" height="200" rx="20" fill="white" stroke="#E2E8F0" stroke-width="2"/>
  
  <!-- Chart bars -->
  <rect x="180" y="280" width="30" height="20" fill="#FF6B35"/>
  <rect x="220" y="260" width="30" height="40" fill="#F7931E"/>
  <rect x="260" y="240" width="30" height="60" fill="#FF6B35"/>
  <rect x="300" y="220" width="30" height="80" fill="#F7931E"/>
  <rect x="340" y="200" width="30" height="100" fill="#FF6B35"/>
  <rect x="380" y="180" width="30" height="120" fill="#F7931E"/>
  
  <!-- Chart title -->
  <text x="300" y="160" font-family="Arial, sans-serif" font-size="14" font-weight="bold" text-anchor="middle" fill="#1E293B">Analytics Dashboard</text>
  
  <!-- Decorative lines -->
  <line x1="170" y1="170" x2="430" y2="170" stroke="#E2E8F0" stroke-width="1"/>
  <line x1="170" y1="190" x2="430" y2="190" stroke="#E2E8F0" stroke-width="1"/>
  <line x1="170" y1="210" x2="430" y2="210" stroke="#E2E8F0" stroke-width="1"/>
  <line x1="170" y1="230" x2="430" y2="230" stroke="#E2E8F0" stroke-width="1"/>
  <line x1="170" y1="250" x2="430" y2="250" stroke="#E2E8F0" stroke-width="1"/>
  <line x1="170" y1="270" x2="430" y2="270" stroke="#E2E8F0" stroke-width="1"/>
  
  <!-- Floating elements -->
  <circle cx="120" cy="150" r="8" fill="#FF6B35" opacity="0.8"/>
  <circle cx="480" cy="200" r="6" fill="#F7931E" opacity="0.8"/>
  <circle cx="130" cy="280" r="5" fill="#FF6B35" opacity="0.6"/>
  <circle cx="470" cy="120" r="7" fill="#F7931E" opacity="0.6"/>
</svg>
